# xmcd
#
# Track frame offsets:
#  150
#  22022
#  43475
#  64847
#  80607
#  98847
#  113665
#  124322
#  134235
#  157420
#  174400
#  186442
#  200812
#  218020
#  228325
#  243675
#  258392
#  272287
#  283820
#  296342
#  312210
#  328412
#
# Disc length: 4607 seconds
#
# Revision: 0
# Processed by: cddbd v1.4PL0 Copyright (c) Steve Scherf et al.
# Submitted via: AltoMP3_Maker 3.0
#
DISCID=6511fd16
DTITLE=Josef Kainar - Obelisk (Josef Kainar)
DYEAR=1900
DGENRE=
TTITLE0=Bombardovaci blues
TTITLE1=Ja a dym
TTITLE2=Kralovsky vecer
TTITLE3=Blues zeleznicniho mostu
TTITLE4=Ram pristich obrazu
TTITLE5=Imperial blues
TTITLE6=Tiger Rag
TTITLE7=Mival jsem klobouk
TTITLE8=Mala pani
TTITLE9=Doky, vlaky, hlad a boty
TTITLE10=Cerna kara
TTITLE11=Sochy
TTITLE12=Strihali dohola maleho chlapecka
TTITLE13=Dve loutny
TTITLE14=Kuceravy listonos
TTITLE15=Miss Otis lituje
TTITLE16=Bazliva
TTITLE17=Odjakziva me to vabi
TTITLE18=Blues o nocni cekarne
TTITLE19=Mrtvy vrabec
TTITLE20=Kure v hodinkach
TTITLE21=Obelisk
EXTD=
EXTT0=
EXTT1=
EXTT2=
EXTT3=
EXTT4=
EXTT5=
EXTT6=
EXTT7=
EXTT8=
EXTT9=
EXTT10=
EXTT11=
EXTT12=
EXTT13=
EXTT14=
EXTT15=
EXTT16=
EXTT17=
EXTT18=
EXTT19=
EXTT20=
EXTT21=
PLAYORDER=
